<?xml version="1.0" encoding="UTF-8"?>
<svg version="1.1" xmlns="http://www.w3.org/2000/svg" width="225" height="225">
<path d="M0 0 C6.36792224 -0.07656229 12.73572416 -0.12881323 19.10400391 -0.16479492 C21.26680945 -0.17980768 23.42958493 -0.20022416 25.59228516 -0.22631836 C28.71524511 -0.26303366 31.8377998 -0.27980196 34.9609375 -0.29296875 C36.39280899 -0.31619453 36.39280899 -0.31619453 37.85360718 -0.33988953 C49.53845731 -0.34276684 58.31715093 3.14904066 67 11 C74.15347416 18.93208359 80.51876701 29.02483544 80 40 C81.0415625 40.08636719 82.083125 40.17273437 83.15625 40.26171875 C104.56832119 42.26232884 122.98597981 49.34139845 139 64 C139.80179688 64.7321875 140.60359375 65.464375 141.4296875 66.21875 C154.02668734 78.264366 162.84550007 94.11961081 167 111 C167.33644531 112.24523437 167.33644531 112.24523437 167.6796875 113.515625 C172.6823171 135.3079019 168.42990972 160.43212095 156.87475586 179.49072266 C155.0143824 182.40061004 153.04081084 185.21435555 151 188 C150.23816406 189.04027344 149.47632813 190.08054688 148.69140625 191.15234375 C133.77375451 210.18520977 111.81572552 221.63875805 88 225 C62.26064022 227.08728372 38.41738163 221.49366047 18.27734375 204.734375 C15.80079689 202.5379805 13.39425552 200.28542573 11 198 C10.38640625 197.46117187 9.7728125 196.92234375 9.140625 196.3671875 C-5.37095294 183.12038011 -14.97498653 160.32856755 -16.12426758 140.89916992 C-17.0503558 113.50358808 -9.39692295 89.54939656 9 69 C9.55042969 68.36707031 10.10085937 67.73414062 10.66796875 67.08203125 C19.54111099 57.50780123 31.32974628 51.44145263 43 46 C42.03320312 45.85304687 41.06640625 45.70609375 40.0703125 45.5546875 C27.1034476 43.4007787 17.31530757 38.60971651 9 28 C3.65049602 19.08756303 -0.13345794 10.55800617 0 0 Z " fill="#D7721A" transform="translate(36,0)"/>
<path d="M0 0 C6.36792224 -0.07656229 12.73572416 -0.12881323 19.10400391 -0.16479492 C21.26680945 -0.17980768 23.42958493 -0.20022416 25.59228516 -0.22631836 C28.71524511 -0.26303366 31.8377998 -0.27980196 34.9609375 -0.29296875 C36.39280899 -0.31619453 36.39280899 -0.31619453 37.85360718 -0.33988953 C49.53845731 -0.34276684 58.31715093 3.14904066 67 11 C74.15347416 18.93208359 80.51876701 29.02483544 80 40 C80.66 40.33 81.32 40.66 82 41 C80.83726563 41.02578125 79.67453125 41.0515625 78.4765625 41.078125 C69.95997918 41.35453255 62.11731478 42.03616264 53.875 44.25 C43.03254804 47.01357557 32.42458297 45.82739435 22.5 40.375 C20.96112233 39.30379483 19.45956531 38.17698517 18 37 C17.22269531 36.37351563 16.44539063 35.74703125 15.64453125 35.1015625 C7.41461323 27.68498646 1.7611499 16.95826603 0 6 C-0.02184336 4.00011929 -0.02527888 1.99984024 0 0 Z " fill="#3CB659" transform="translate(36,0)"/>
</svg>
